<?xml version="1.0" encoding="utf-8"?>
<!-- Generator: Adobe Illustrator 26.3.1, SVG Export Plug-In . SVG Version: 6.00 Build 0)  -->
<svg version="1.1" id="Layer_1" xmlns="http://www.w3.org/2000/svg" xmlns:xlink="http://www.w3.org/1999/xlink" x="0px" y="0px"
	 viewBox="0 0 174.9 34.41" style="enable-background:new 0 0 174.9 34.41;" xml:space="preserve">
<style type="text/css">
	.st0{fill:#FCFCFC;}
</style>
<path class="st0" d="M41.84,12c1.02,1.04,1.01,2.7-0.02,3.73c-1.04,1.02-2.7,1.01-3.73-0.02s-1.01-2.7,0.02-3.73
	S40.82,10.96,41.84,12z M33.36,16.66c-0.78,0.77-0.98,1.9-0.59,2.86l-2.55,2.52c-0.95-0.4-2.09-0.21-2.87,0.56
	c-1.04,1.02-1.05,2.69-0.02,3.73c1.02,1.04,2.69,1.05,3.73,0.02c0.78-0.77,0.98-1.9,0.59-2.86l2.55-2.52
	c0.95,0.4,2.09,0.21,2.87-0.56c1.04-1.02,1.05-2.69,0.02-3.73C36.07,15.65,34.4,15.64,33.36,16.66z M35.12,24.2
	c-1.04,1.02-1.05,2.69-0.02,3.73c1.02,1.04,2.69,1.05,3.73,0.02c1.04-1.02,1.05-2.69,0.02-3.73C37.82,23.19,36.16,23.17,35.12,24.2z
	 M20.76,9.94c1.04-1.02,1.05-2.69,0.02-3.73c-1.02-1.04-2.69-1.05-3.73-0.02c-1.04,1.02-1.05,2.69-0.02,3.73S19.72,10.96,20.76,9.94
	z M22.6,27.28c-1.04,1.02-1.05,2.69-0.02,3.73s2.69,1.05,3.73,0.02c1.04-1.02,1.05-2.69,0.02-3.73
	C25.3,26.27,23.63,26.26,22.6,27.28z M33.3,7.12c1.04-1.02,1.05-2.69,0.02-3.73c-1.02-1.04-2.69-1.05-3.73-0.02
	c-1.04,1.02-1.05,2.69-0.02,3.73C30.6,8.14,32.26,8.15,33.3,7.12z M22.53,17.75c0.74-0.73,0.95-1.78,0.65-2.7l2.66-2.62
	c0.92,0.31,1.97,0.11,2.7-0.62c1.04-1.02,1.05-2.69,0.02-3.73s-2.69-1.05-3.73-0.02c-0.82,0.81-1,2.03-0.53,3.01l-2.47,2.44
	c-0.98-0.48-2.2-0.32-3.02,0.49c-1.04,1.02-1.05,2.69-0.02,3.73S21.5,18.77,22.53,17.75z M17.78,22.44
	c1.04-1.02,1.05-2.69,0.02-3.73s-2.69-1.05-3.73-0.02c-1.04,1.02-1.05,2.69-0.02,3.73S16.74,23.46,17.78,22.44z M20.12,24.78
	c1.02,1.04,2.69,1.05,3.73,0.02c0.78-0.77,0.98-1.9,0.59-2.86l2.41-2.37c0.95,0.4,2.09,0.21,2.87-0.56c0.78-0.77,0.98-1.9,0.59-2.86
	l2.55-2.52c0.95,0.4,2.09,0.21,2.87-0.56c1.04-1.02,1.05-2.69,0.02-3.73c-1.02-1.04-2.69-1.05-3.73-0.02
	c-0.78,0.77-0.98,1.9-0.59,2.86l-2.55,2.52c-0.95-0.4-2.09-0.21-2.87,0.56c-0.78,0.77-0.98,1.9-0.59,2.86l-2.41,2.37
	c-0.95-0.4-2.09-0.21-2.87,0.56C19.11,22.07,19.1,23.74,20.12,24.78z M52.32,9.5h1.91V12l2-2.5h2.54l-2.25,2.49l2.35,4.11h-2.35
	l-1.3-2.72l-0.99,1.1v1.61h-1.91V9.5z M58.87,12.81c0-1.08,0.28-1.92,0.84-2.52c0.56-0.6,1.34-0.9,2.34-0.9
	c1.03,0,1.82,0.29,2.37,0.88c0.56,0.59,0.83,1.42,0.83,2.48c0,0.77-0.12,1.4-0.36,1.9c-0.24,0.49-0.59,0.88-1.05,1.15
	c-0.46,0.27-1.03,0.41-1.72,0.41c-0.7,0-1.27-0.12-1.73-0.36c-0.46-0.24-0.83-0.61-1.11-1.13C59.01,14.22,58.87,13.58,58.87,12.81z
	 M60.78,12.82c0,0.67,0.12,1.15,0.35,1.44c0.23,0.29,0.55,0.44,0.94,0.44c0.41,0,0.73-0.14,0.95-0.43c0.22-0.29,0.34-0.8,0.34-1.54
	c0-0.62-0.12-1.08-0.35-1.36c-0.23-0.29-0.55-0.43-0.95-0.43c-0.38,0-0.69,0.15-0.93,0.44C60.89,11.66,60.78,12.14,60.78,12.82z
	 M65.87,13.92l1.81-0.12c0.04,0.32,0.12,0.56,0.24,0.72c0.2,0.27,0.48,0.4,0.84,0.4c0.27,0,0.48-0.07,0.63-0.2
	c0.15-0.14,0.22-0.29,0.22-0.48c0-0.17-0.07-0.32-0.21-0.46c-0.14-0.14-0.47-0.26-0.98-0.38c-0.84-0.2-1.43-0.47-1.79-0.8
	c-0.36-0.33-0.54-0.76-0.54-1.27c0-0.34,0.09-0.66,0.28-0.96c0.18-0.3,0.46-0.54,0.83-0.71c0.37-0.17,0.87-0.26,1.52-0.26
	c0.79,0,1.39,0.16,1.8,0.47c0.41,0.31,0.66,0.81,0.74,1.5l-1.8,0.11c-0.05-0.3-0.15-0.51-0.3-0.65c-0.15-0.14-0.36-0.2-0.63-0.2
	c-0.22,0-0.39,0.05-0.5,0.15c-0.11,0.1-0.17,0.22-0.17,0.37c0,0.11,0.05,0.2,0.14,0.28c0.09,0.09,0.3,0.17,0.64,0.24
	c0.83,0.19,1.43,0.39,1.79,0.58c0.36,0.2,0.62,0.44,0.79,0.73c0.16,0.29,0.25,0.62,0.25,0.98c0,0.42-0.11,0.81-0.33,1.17
	c-0.22,0.36-0.52,0.63-0.92,0.81c-0.39,0.18-0.89,0.28-1.49,0.28c-1.05,0-1.78-0.22-2.18-0.65C66.15,15.13,65.92,14.59,65.87,13.92z
	 M72.42,9.5h1.91v6.6h-1.91V9.5z M79.72,13.4l1.67,0.54c-0.11,0.5-0.29,0.92-0.53,1.26c-0.24,0.34-0.54,0.59-0.9,0.76
	c-0.36,0.17-0.81,0.26-1.37,0.26c-0.67,0-1.22-0.1-1.64-0.31c-0.43-0.21-0.79-0.58-1.1-1.1c-0.31-0.53-0.46-1.2-0.46-2.02
	c0-1.09,0.27-1.93,0.81-2.52c0.54-0.59,1.31-0.88,2.3-0.88c0.78,0,1.39,0.17,1.83,0.5c0.44,0.34,0.78,0.85,0.99,1.55l-1.68,0.4
	c-0.06-0.2-0.12-0.35-0.19-0.44c-0.11-0.16-0.24-0.28-0.39-0.36c-0.15-0.08-0.33-0.13-0.52-0.13c-0.43,0-0.76,0.19-0.99,0.56
	c-0.17,0.28-0.26,0.71-0.26,1.3c0,0.73,0.1,1.23,0.31,1.5c0.21,0.27,0.5,0.41,0.88,0.41c0.36,0,0.64-0.11,0.83-0.33
	C79.5,14.14,79.64,13.82,79.72,13.4z M82.24,9.5h1.91V12l2-2.5h2.54l-2.25,2.49l2.35,4.11h-2.35l-1.3-2.72l-0.99,1.1v1.61h-1.91V9.5
	z M93.12,15.01h-2.16l-0.3,1.09h-1.95l2.32-6.6h2.08l2.32,6.6h-2L93.12,15.01z M93.22,6.87v1.11l-2.03,0.78V7.75L93.22,6.87z
	 M92.72,13.59l-0.68-2.37l-0.67,2.37H92.72z M102.53,15.01h-2.16l-0.3,1.09h-1.95l2.32-6.6h2.08l2.32,6.6h-2L102.53,15.01z
	 M102.13,13.59l-0.68-2.37l-0.67,2.37H102.13z M105.36,9.5h1.91V12l2-2.5h2.54l-2.25,2.49l2.35,4.11h-2.35l-1.3-2.72l-0.99,1.1v1.61
	h-1.91V9.5z M116.24,15.01h-2.16l-0.3,1.09h-1.95l2.32-6.6h2.08l2.32,6.6h-2L116.24,15.01z M115.84,13.59l-0.68-2.37l-0.67,2.37
	H115.84z M119.09,9.5h2.83c0.56,0,1.01,0.08,1.35,0.24c0.34,0.16,0.63,0.39,0.85,0.7c0.22,0.3,0.39,0.66,0.49,1.06
	c0.1,0.4,0.15,0.83,0.15,1.28c0,0.71-0.08,1.25-0.23,1.64c-0.15,0.39-0.36,0.71-0.63,0.98c-0.27,0.26-0.55,0.44-0.86,0.52
	c-0.42,0.12-0.8,0.18-1.14,0.18h-2.83V9.5z M121,11v3.61h0.47c0.4,0,0.68-0.05,0.85-0.14c0.17-0.09,0.3-0.26,0.4-0.5
	c0.1-0.24,0.14-0.62,0.14-1.15c0-0.7-0.11-1.18-0.32-1.44c-0.21-0.26-0.57-0.39-1.06-0.39H121z M125.68,9.5h5.11v1.41h-3.2v1.05
	h2.97v1.35h-2.97v1.3h3.29v1.5h-5.2V9.5z M131.8,9.5h2.51l0.97,4.02l0.96-4.02h2.51v6.6h-1.56v-5.04l-1.2,5.04h-1.41l-1.2-5.04v5.04
	h-1.56V9.5z M139.95,9.5h1.91v6.6h-1.91V9.5z M146.93,15.01h-2.16l-0.3,1.09h-1.95l2.32-6.6h2.08l2.32,6.6h-2L146.93,15.01z
	 M146.54,13.59l-0.68-2.37l-0.67,2.37H146.54z M51.56,25.64l0.77-0.07c0.04,0.33,0.12,0.6,0.25,0.81c0.13,0.21,0.34,0.38,0.62,0.51
	c0.28,0.13,0.6,0.2,0.95,0.2c0.31,0,0.59-0.05,0.82-0.15c0.24-0.1,0.42-0.23,0.53-0.41c0.12-0.17,0.17-0.36,0.17-0.57
	c0-0.21-0.06-0.39-0.17-0.54c-0.11-0.15-0.3-0.28-0.56-0.39c-0.17-0.07-0.53-0.18-1.1-0.32c-0.57-0.15-0.96-0.28-1.19-0.41
	c-0.29-0.17-0.51-0.37-0.66-0.61c-0.14-0.24-0.22-0.52-0.22-0.82c0-0.33,0.09-0.64,0.27-0.93c0.18-0.29,0.43-0.51,0.77-0.66
	c0.34-0.15,0.72-0.23,1.13-0.23c0.46,0,0.86,0.08,1.21,0.24c0.35,0.16,0.62,0.39,0.81,0.7c0.19,0.31,0.29,0.65,0.3,1.04l-0.78,0.06
	c-0.04-0.42-0.18-0.73-0.43-0.95c-0.24-0.21-0.6-0.32-1.08-0.32c-0.49,0-0.85,0.1-1.08,0.29c-0.23,0.19-0.34,0.43-0.34,0.7
	c0,0.24,0.08,0.43,0.24,0.59c0.16,0.15,0.57,0.31,1.23,0.47c0.66,0.16,1.12,0.3,1.37,0.42c0.36,0.18,0.62,0.4,0.8,0.67
	c0.17,0.27,0.26,0.58,0.26,0.94c0,0.35-0.09,0.68-0.28,0.99c-0.19,0.31-0.46,0.55-0.81,0.73c-0.35,0.17-0.75,0.26-1.19,0.26
	c-0.56,0-1.03-0.09-1.4-0.26c-0.38-0.17-0.67-0.44-0.89-0.79C51.68,26.48,51.57,26.08,51.56,25.64z M57.46,24.55
	c0-1.1,0.27-1.95,0.82-2.57c0.55-0.62,1.26-0.93,2.13-0.93c0.57,0,1.08,0.15,1.54,0.44c0.46,0.29,0.81,0.7,1.05,1.22
	c0.24,0.52,0.36,1.11,0.36,1.77c0,0.67-0.13,1.27-0.38,1.8c-0.25,0.53-0.61,0.93-1.07,1.2c-0.46,0.27-0.96,0.41-1.5,0.41
	c-0.58,0-1.1-0.15-1.56-0.45c-0.46-0.3-0.8-0.71-1.04-1.23C57.58,25.68,57.46,25.13,57.46,24.55z M58.3,24.56
	c0,0.8,0.2,1.42,0.6,1.88c0.4,0.46,0.9,0.69,1.5,0.69c0.61,0,1.12-0.23,1.52-0.69c0.4-0.46,0.6-1.12,0.6-1.97
	c0-0.54-0.08-1.01-0.25-1.41c-0.17-0.4-0.42-0.71-0.75-0.93c-0.33-0.22-0.69-0.33-1.1-0.33c-0.58,0-1.08,0.21-1.49,0.64
	C58.51,22.86,58.3,23.57,58.3,24.56z M64.57,27.76v-6.6h4.16v0.78h-3.35v2.04h2.9v0.78h-2.9v3H64.57z M71.49,27.76v-5.82h-2.03
	v-0.78h4.89v0.78h-2.04v5.82H71.49z M77.07,27.76l-2.39-6.6h0.88l1.6,4.8c0.13,0.38,0.24,0.74,0.32,1.08
	c0.1-0.36,0.21-0.72,0.33-1.08l1.67-4.8h0.83l-2.42,6.6H77.07z M81.19,27.76v-6.6h4.46v0.78h-3.65v2.02h3.41v0.77h-3.41v2.25h3.79
	v0.78H81.19z M87.06,27.76v-6.6h2.74c0.55,0,0.97,0.06,1.25,0.18c0.29,0.12,0.51,0.33,0.69,0.63c0.17,0.3,0.26,0.63,0.26,1
	c0,0.47-0.14,0.86-0.43,1.18c-0.28,0.32-0.72,0.53-1.31,0.61c0.22,0.11,0.38,0.22,0.49,0.33c0.24,0.23,0.46,0.53,0.68,0.88l1.07,1.8
	h-1.03l-0.82-1.37c-0.24-0.4-0.43-0.7-0.59-0.91c-0.15-0.21-0.29-0.36-0.41-0.44c-0.12-0.08-0.25-0.14-0.37-0.18
	c-0.09-0.02-0.24-0.03-0.45-0.03h-0.95v2.93H87.06z M87.87,24.07h1.76c0.37,0,0.67-0.04,0.88-0.12c0.21-0.08,0.37-0.21,0.48-0.4
	c0.11-0.18,0.16-0.38,0.16-0.59c0-0.31-0.11-0.57-0.32-0.77c-0.21-0.2-0.55-0.3-1-0.3h-1.95V24.07z M93.14,24.55
	c0-1.1,0.27-1.95,0.82-2.57c0.55-0.62,1.26-0.93,2.13-0.93c0.57,0,1.08,0.15,1.54,0.44c0.46,0.29,0.81,0.7,1.05,1.22
	c0.24,0.52,0.36,1.11,0.36,1.77c0,0.67-0.13,1.27-0.38,1.8c-0.25,0.53-0.61,0.93-1.07,1.2c-0.46,0.27-0.96,0.41-1.5,0.41
	c-0.58,0-1.1-0.15-1.56-0.45c-0.46-0.3-0.8-0.71-1.04-1.23C93.26,25.68,93.14,25.13,93.14,24.55z M93.98,24.56
	c0,0.8,0.2,1.42,0.6,1.88c0.4,0.46,0.9,0.69,1.5,0.69c0.61,0,1.12-0.23,1.52-0.69c0.4-0.46,0.6-1.12,0.6-1.97
	c0-0.54-0.08-1.01-0.25-1.41c-0.17-0.4-0.42-0.71-0.75-0.93c-0.33-0.22-0.69-0.33-1.1-0.33c-0.58,0-1.08,0.21-1.49,0.64
	C94.19,22.86,93.98,23.57,93.98,24.56z M101.98,27.76l-2.39-6.6h0.88l1.6,4.8c0.13,0.38,0.24,0.74,0.32,1.08
	c0.1-0.36,0.21-0.72,0.33-1.08l1.67-4.8h0.83l-2.42,6.6H101.98z M106.1,27.76v-6.6h4.46v0.78h-3.65v2.02h3.41v0.77h-3.41v2.25h3.79
	v0.78H106.1z M111.98,27.76v-6.6h0.82v2.71h3.21v-2.71h0.82v6.6h-0.82v-3.11h-3.21v3.11H111.98z M118.06,24.55
	c0-1.1,0.27-1.95,0.82-2.57c0.55-0.62,1.26-0.93,2.13-0.93c0.57,0,1.08,0.15,1.54,0.44c0.46,0.29,0.81,0.7,1.05,1.22
	c0.24,0.52,0.36,1.11,0.36,1.77c0,0.67-0.13,1.27-0.38,1.8c-0.25,0.53-0.61,0.93-1.07,1.2c-0.46,0.27-0.96,0.41-1.5,0.41
	c-0.58,0-1.1-0.15-1.56-0.45c-0.46-0.3-0.8-0.71-1.04-1.23C118.17,25.68,118.06,25.13,118.06,24.55z M118.9,24.56
	c0,0.8,0.2,1.42,0.6,1.88c0.4,0.46,0.9,0.69,1.5,0.69c0.61,0,1.12-0.23,1.52-0.69c0.4-0.46,0.6-1.12,0.6-1.97
	c0-0.54-0.08-1.01-0.25-1.41c-0.17-0.4-0.42-0.71-0.75-0.93c-0.33-0.22-0.69-0.33-1.1-0.33c-0.58,0-1.08,0.21-1.49,0.64
	C119.11,22.86,118.9,23.57,118.9,24.56z M129.41,27.76l-2.39-6.6h0.88l1.6,4.8c0.13,0.38,0.24,0.74,0.32,1.08
	c0.1-0.36,0.21-0.72,0.33-1.08l1.67-4.8h0.83l-2.42,6.6H129.41z M135.25,27.76v-2.8l-2.38-3.81h0.99l1.22,1.99
	c0.22,0.37,0.43,0.74,0.63,1.12c0.19-0.35,0.41-0.73,0.67-1.17l1.2-1.94h0.95l-2.46,3.81v2.8H135.25z M141.15,27.76l-2.39-6.6h0.88
	l1.6,4.8c0.13,0.38,0.24,0.74,0.32,1.08c0.1-0.36,0.21-0.72,0.33-1.08l1.67-4.8h0.83l-2.42,6.6H141.15z M145.01,24.55
	c0-1.1,0.27-1.95,0.82-2.57c0.55-0.62,1.26-0.93,2.13-0.93c0.57,0,1.08,0.15,1.54,0.44c0.46,0.29,0.81,0.7,1.05,1.22
	c0.24,0.52,0.36,1.11,0.36,1.77c0,0.67-0.13,1.27-0.38,1.8c-0.25,0.53-0.61,0.93-1.07,1.2c-0.46,0.27-0.96,0.41-1.5,0.41
	c-0.58,0-1.1-0.15-1.56-0.45c-0.46-0.3-0.8-0.71-1.04-1.23C145.13,25.68,145.01,25.13,145.01,24.55z M145.85,24.56
	c0,0.8,0.2,1.42,0.6,1.88c0.4,0.46,0.9,0.69,1.5,0.69c0.61,0,1.12-0.23,1.52-0.69c0.4-0.46,0.6-1.12,0.6-1.97
	c0-0.54-0.08-1.01-0.25-1.41c-0.17-0.4-0.42-0.71-0.75-0.93c-0.33-0.22-0.69-0.33-1.1-0.33c-0.58,0-1.08,0.21-1.49,0.64
	C146.06,22.86,145.85,23.57,145.85,24.56z M151.66,25.89l0.74-0.11c0.02,0.5,0.11,0.85,0.27,1.04c0.16,0.19,0.37,0.28,0.65,0.28
	c0.2,0,0.38-0.05,0.53-0.15c0.15-0.1,0.25-0.24,0.31-0.41c0.06-0.17,0.08-0.45,0.08-0.83v-4.55h0.82v4.5c0,0.55-0.06,0.98-0.19,1.28
	c-0.12,0.3-0.32,0.53-0.59,0.69c-0.27,0.16-0.59,0.24-0.95,0.24c-0.54,0-0.96-0.17-1.24-0.5C151.79,27.04,151.65,26.55,151.66,25.89
	z M155.83,27.76l2.37-6.6h0.88l2.53,6.6h-0.93l-0.72-2h-2.58l-0.68,2H155.83z M157.61,25.05h2.09l-0.64-1.83
	c-0.2-0.56-0.34-1.01-0.44-1.37c-0.08,0.42-0.19,0.84-0.33,1.26L157.61,25.05z M129.44,6.87v1.11l-2.03,0.78V7.75L129.44,6.87z
	 M68.93,7.55l-1.49-0.67V8.1l1.49,0.67l1.49-0.67V6.88L68.93,7.55z M84.29,19.31v0.71l-1.49,0.78v-0.62L84.29,19.31z M109.37,19.31
	v0.71l-1.49,0.78v-0.62L109.37,19.31z M136.73,19.31v0.71l-1.49,0.78v-0.62L136.73,19.31z"/>
</svg>
